<svg width="26" height="26" viewBox="0 0 24 24" fill="none" xmlns="http://www.w3.org/2000/svg">
<path d="M8.81 2L5.19 5.63" stroke="#3889F2" stroke-width="1.5" stroke-miterlimit="10" stroke-linecap="round" stroke-linejoin="round"/>
<path d="M15.19 2L18.81 5.63" stroke="#3889F2" stroke-width="1.5" stroke-miterlimit="10" stroke-linecap="round" stroke-linejoin="round"/>
<path d="M2 7.8501C2 6.0001 2.99 5.8501 4.22 5.8501H19.78C21.01 5.8501 22 6.0001 22 7.8501C22 10.0001 21.01 9.8501 19.78 9.8501H4.22C2.99 9.8501 2 10.0001 2 7.8501Z" stroke="#3889F2" stroke-width="1.5"/>
<path d="M9.76001 14V17.55" stroke="#3889F2" stroke-width="1.5" stroke-linecap="round"/>
<path d="M14.36 14V17.55" stroke="#3889F2" stroke-width="1.5" stroke-linecap="round"/>
<path d="M3.5 10L4.91 18.64C5.23 20.58 6 22 8.86 22H14.89C18 22 18.46 20.64 18.82 18.76L20.5 10" stroke="#3889F2" stroke-width="1.5" stroke-linecap="round"/>
</svg>
