<svg fill="#FFFFFF" height="24px" width="24px" version="1.1" id="Layer_1" xmlns="http://www.w3.org/2000/svg" xmlns:xlink="http://www.w3.org/1999/xlink" viewBox="0 0 512 512" xml:space="preserve"><g id="SVGRepo_bgCarrier" stroke-width="0"></g><g id="SVGRepo_tracerCarrier" stroke-linecap="round" stroke-linejoin="round"></g><g id="SVGRepo_iconCarrier"> <g> <g> <path d="M350.453,44.43H268.06v30.294c0,6.659-5.399,12.059-12.059,12.059s-12.059-5.4-12.059-12.059V44.43h-82.393 c-15.174,0-27.518,12.344-27.518,27.517v167.772h121.971h121.971V71.947C377.972,56.774,365.628,44.43,350.453,44.43z"></path> </g> </g> <g> <g> <path d="M0,291.356v148.697c0,15.173,12.344,27.517,27.517,27.517H243.94V263.837H27.517C12.344,263.837,0,276.183,0,291.356z"></path> </g> </g> <g> <g> <path d="M484.483,263.837H268.06v203.732h216.423c15.173,0,27.517-12.344,27.517-27.517V291.356 C512,276.183,499.656,263.837,484.483,263.837z"></path> </g> </g> </g></svg>