<svg width="26" height="26" viewBox="0 0 108 92" fill="none" xmlns="http://www.w3.org/2000/svg">
<g clip-path="url(#clip0_0_109)">
<path fill-rule="evenodd" clip-rule="evenodd" d="M106.477 36.5109L55.6488 0.565574C54.5915 -0.188525 53.1565 -0.188525 52.0992 0.565574L1.29639 36.5109C-0.0882224 37.4913 -0.415495 39.4016 0.566323 40.7842C1.54814 42.1667 3.46143 42.4934 4.84604 41.5131L7.84185 39.4016V88.4683C7.84185 90.1525 9.22646 91.535 10.9132 91.535H41.6013C43.288 91.535 44.6726 90.1525 44.6726 88.4683V60.8683H63.0754V88.4432C63.0754 90.1273 64.46 91.5098 66.1467 91.5098H96.8349C98.5216 91.5098 99.9062 90.1273 99.9062 88.4432V39.3765L102.902 41.488C103.431 41.865 104.06 42.041 104.664 42.041C105.621 42.041 106.578 41.5885 107.182 40.759C108.164 39.4016 107.861 37.4913 106.477 36.5109ZM93.7887 85.3765H69.2432V57.8016C69.2432 56.1175 67.8586 54.735 66.1719 54.735H41.6265C39.9397 54.735 38.5551 56.1175 38.5551 57.8016V85.3765H13.9845V35.053L53.8866 6.82459L93.7887 35.053V85.3765Z" fill="white"/>
</g>
<defs>
<clipPath id="clip0_0_109">
<rect width="108" height="92" fill="white"/>
</clipPath>
</defs>
</svg>
