<svg width="26" height="26" viewBox="0 0 115 94" fill="none" xmlns="http://www.w3.org/2000/svg">
<g clip-path="url(#clip0_0_113)">
<g clip-path="url(#clip1_0_113)">
<path fill-rule="evenodd" clip-rule="evenodd" d="M21.2171 51.5493H3.0883C1.40598 51.5493 0.0751953 52.9065 0.0751953 54.5654V90.8835C0.0751953 92.5675 1.43109 93.8996 3.0883 93.8996H21.2171C22.8994 93.8996 24.2302 92.5424 24.2302 90.8835V54.5654C24.2553 52.8814 22.8994 51.5493 21.2171 51.5493ZM18.204 87.8424H6.1014V57.5814H18.204V87.8424Z" fill="white"/>
<path fill-rule="evenodd" clip-rule="evenodd" d="M51.4486 33.3774H33.3197C31.6374 33.3774 30.3066 34.7347 30.3066 36.3935V90.8582C30.3066 92.5421 31.6625 93.8742 33.3197 93.8742H51.4486C53.1309 93.8742 54.4617 92.517 54.4617 90.8582V36.4186C54.4868 34.7347 53.1309 33.3774 51.4486 33.3774ZM48.4355 87.8421H36.3328V39.4347H48.4355V87.8421V87.8421Z" fill="white"/>
<path fill-rule="evenodd" clip-rule="evenodd" d="M81.68 45.4919H63.5512C61.8689 45.4919 60.5381 46.8492 60.5381 48.508V90.8583C60.5381 92.5422 61.894 93.8743 63.5512 93.8743H81.68C83.3623 93.8743 84.6931 92.5171 84.6931 90.8583V48.508C84.6931 46.8492 83.3623 45.4919 81.68 45.4919ZM78.6669 87.8422H66.5643V51.5492H78.6669V87.8422Z" fill="white"/>
<path fill-rule="evenodd" clip-rule="evenodd" d="M111.911 21.2883H93.7826C92.1003 21.2883 90.7695 22.6455 90.7695 24.3044V90.8584C90.7695 92.5423 92.1254 93.8744 93.7826 93.8744H111.911C113.594 93.8744 114.925 92.5172 114.925 90.8584V24.3044C114.925 22.6455 113.569 21.2883 111.911 21.2883ZM108.898 87.8423H96.7957V27.3204H108.898V87.8423Z" fill="white"/>
<path fill-rule="evenodd" clip-rule="evenodd" d="M12.1529 39.4347C12.7555 39.4347 13.3581 39.2588 13.8854 38.8817L42.6354 18.7497L71.2348 33.3021C72.3396 33.8801 73.6955 33.6791 74.6245 32.8497L104.881 5.35341C106.111 4.22239 106.212 2.31223 105.082 1.08068C103.952 -0.150871 102.044 -0.251406 100.813 0.87961L72.1136 26.9684L43.7402 12.5416C42.761 12.039 41.5557 12.1144 40.6267 12.7678L10.4204 33.9304C9.03936 34.8855 8.71294 36.7705 9.66708 38.1529C10.2697 38.9823 11.1987 39.4347 12.1529 39.4347Z" fill="white"/>
</g>
</g>
<defs>
<clipPath id="clip0_0_113">
<rect width="115" height="94" fill="white"/>
</clipPath>
<clipPath id="clip1_0_113">
<rect width="115" height="94" fill="white"/>
</clipPath>
</defs>
</svg>
